# xmcd
#
# Track frame offsets:
#	150
#	21248
#	37725
#	52810
#	73484
#	89658
#	111787
#	128174
#	152045
#	177114
#
# Disc length: 2665 seconds
#
# Revision: 0
# Processed by: cddbd v1.5.2PL0 Copyright (c) Steve Scherf et al.
# Submitted via: EZCDAudioConverter 1.0.4.1
#
DISCID=800a670a
DTITLE=Mick Hayes Band - MHB
DYEAR=2009
DGENRE=Blues
TTITLE0=Maria
TTITLE1=Following A Broken Heart
TTITLE2=Poor Excuse For A Man
TTITLE3=Sugary
TTITLE4=Big Block Rock
TTITLE5=A Blues With No Name
TTITLE6=Women Who Drink (Way Too Much)
TTITLE7=The Honeymoon Is Over
TTITLE8=She's Got Demons
TTITLE9=Untitled (Hope In My Dreams)
EXTD=
EXTT0=
EXTT1=
EXTT2=
EXTT3=
EXTT4=
EXTT5=
EXTT6=
EXTT7=
EXTT8=
EXTT9=
PLAYORDER=
